<svg xmlns="http://www.w3.org/2000/svg" viewBox="0 0 838 276"><style>.st0{fill:#ff9e18}.st1{fill:#415364}</style><path class="st0" d="M319.5 100v76.1c0 .7-.4 1.3-.9 1.6l-65.8 37.7c-.6.3-1.3.3-1.8 0l-66.1-38c-.6-.3-.9-.9-.9-1.6V109c0-.7-.4-1.3-.9-1.6L164.9 97c-1.2-.7-2.8.2-2.8 1.6v84.5c0 3.9 2.1 7.6 5.5 9.5l78.7 45.1c3.4 2 7.6 2 11.1 0l78.4-44.9c3.4-2 5.5-5.6 5.5-9.5V92.7c0-3.9-2.1-7.6-5.5-9.5l-78.4-44.9c-3.4-2-7.6-2-11.1 0L210 59.1c-1.2.7-1.2 2.5 0 3.2l18.2 10.4c.6.3 1.3.3 1.8 0l20.9-12c.6-.3 1.3-.3 1.8 0l65.8 37.7c.7.3 1 .9 1 1.6z"/><ellipse class="st1" cx="288.9" cy="138.4" rx="12.4" ry="12.4"/><ellipse class="st1" cx="249.3" cy="138.4" rx="12.4" ry="12.4"/><path class="st1" d="M64 176V99.9c0-.7.4-1.3.9-1.6l65.8-37.7c.6-.3 1.3-.3 1.8 0l66.1 38c.6.3.9.9.9 1.6V167c0 .7.4 1.3.9 1.6l18.1 10.4c1.2.7 2.8-.2 2.8-1.6V92.9c0-3.9-2.1-7.6-5.5-9.5l-78.7-45.1c-3.4-2-7.6-2-11.1 0L47.7 83.1c-3.4 2-5.5 5.6-5.5 9.5v90.6c0 3.9 2.1 7.6 5.5 9.5l78.4 44.9c3.4 2 7.6 2 11.1 0l36.3-20.8c1.2-.7 1.2-2.5 0-3.2l-18.2-10.4c-.6-.3-1.3-.3-1.8 0l-20.9 12c-.6.3-1.3.3-1.8 0L65 177.5c-.7-.2-1-.8-1-1.5z"/><ellipse class="st0" cx="94.6" cy="137.6" rx="12.4" ry="12.4"/><ellipse class="st0" cx="134.2" cy="137.6" rx="12.4" ry="12.4"/><path class="st0" d="M362.9 121.4h15.2v40.8h11.5v-40.8h15.3v-9.5h-42zm83.6 10.6h-22.1v-20.1h-11.2v50.4h11.2v-20.9h22.1v20.9h11.2v-50.4h-11.2zm54.2-11v-9.1h-34.5v50.4h34.5v-9.1h-23.3v-11.9h21.8v-9.2h-21.8V121z"/><path class="st1" d="M520.6 111.9h-11.4v50.4h33.3v-9.5h-21.9zm65.2 3.1c-3.8-2.1-8.4-3.1-13.6-3.1-5.2 0-9.8 1-13.6 3.1-3.9 2.1-6.9 5-9 8.8-2.1 3.8-3.1 8.3-3.1 13.4s1.1 9.6 3.1 13.4c2.1 3.8 5.1 6.8 9 8.9 3.9 2.1 8.4 3.1 13.6 3.1 5.2 0 9.8-1 13.6-3.1 3.8-2.1 6.8-5 8.9-8.9 2.1-3.8 3.1-8.3 3.1-13.4s-1-9.6-3.1-13.4c-2.1-3.8-5.1-6.7-8.9-8.8zm0 22.2c0 5.3-1.2 9.4-3.6 12.2-2.4 2.8-5.7 4.2-10 4.2s-7.6-1.4-10-4.2c-2.4-2.8-3.6-6.9-3.6-12.2 0-5.3 1.2-9.4 3.6-12.1 2.4-2.7 5.7-4.1 10-4.1 4.2 0 7.6 1.4 10 4.1 2.4 2.7 3.6 6.8 3.6 12.1zm51.9 4.4c0 3.8-.9 6.7-2.6 8.7-1.7 2-4.3 2.9-7.6 2.9s-5.9-1-7.6-2.9c-1.8-2-2.6-4.9-2.6-8.7V112H606v29.1c0 6.9 1.8 12.2 5.5 15.8 3.6 3.6 9 5.4 16 5.4 6.9 0 12.3-1.8 16-5.4 3.7-3.6 5.5-8.9 5.5-15.8V112h-11.3v29.6zm52.4 1.3l-24.3-31h-8.6v50.4h10.9v-31l24.2 30.9.1.1h8.6v-50.4h-10.9zm43.3-.5h9.6v10.1c-2.6.6-5.2.9-7.8.9-9.7 0-14.5-5.3-14.5-16.3 0-10.8 4.5-16 13.8-16 2.5 0 4.8.4 6.9 1.1 2.1.7 4.3 1.9 6.6 3.5l.3.2 3.7-8.2-.2-.2c-2-1.7-4.6-3.1-7.7-4.1-3.1-1-6.4-1.4-10-1.4-5 0-9.5 1-13.3 3.1-3.8 2-6.7 5-8.8 8.7-2.1 3.8-3.1 8.2-3.1 13.3 0 5.2 1 9.7 3.1 13.5 2.1 3.8 5.1 6.7 8.9 8.7 3.8 2 8.4 3 13.6 3 3.4 0 6.7-.3 9.9-1 3.2-.6 6-1.5 8.4-2.7l.2-.1v-24.3h-19.9v8.2zm62.4-21.4v-9.1h-33.9v50.5h33.9v-9.2h-22.9v-11.9h21.5v-9.2h-21.5V121z"/></svg>
