<svg xmlns="http://www.w3.org/2000/svg" viewBox="0 0 386 276"><style>.st0{fill:#ff9e18}.st1{fill:#415364}</style><path class="st0" d="M320.1 100v76.1c0 .7-.4 1.3-.9 1.6l-65.8 37.7c-.6.3-1.3.3-1.8 0l-66.1-38c-.6-.3-.9-.9-.9-1.6V109c0-.7-.4-1.3-.9-1.6L165.5 97c-1.2-.7-2.8.2-2.8 1.6v84.5c0 3.9 2.1 7.6 5.5 9.5l78.7 45.1c3.4 2 7.6 2 11.1 0l78.4-44.9c3.4-2 5.5-5.6 5.5-9.5V92.7c0-3.9-2.1-7.6-5.5-9.5L258 38.3c-3.4-2-7.6-2-11.1 0l-36.3 20.8c-1.2.7-1.2 2.5 0 3.2l18.2 10.4c.6.3 1.3.3 1.8 0l20.9-12c.6-.3 1.3-.3 1.8 0l65.8 37.7c.7.3 1 .9 1 1.6z"/><ellipse class="st1" cx="289.6" cy="138.4" rx="12.4" ry="12.4"/><ellipse class="st1" cx="249.9" cy="138.4" rx="12.4" ry="12.4"/><path class="st1" d="M64.6 176V99.9c0-.7.4-1.3.9-1.6l65.8-37.7c.6-.3 1.3-.3 1.8 0l66.1 38c.6.3.9.9.9 1.6V167c0 .7.4 1.3.9 1.6l18.1 10.4c1.2.7 2.8-.2 2.8-1.6V92.9c0-3.9-2.1-7.6-5.5-9.5l-78.7-45.1c-3.4-2-7.6-2-11.1 0L48.3 83.1c-3.4 2-5.5 5.6-5.5 9.5v90.6c0 3.9 2.1 7.6 5.5 9.5l78.4 44.9c3.4 2 7.6 2 11.1 0l36.3-20.8c1.2-.7 1.2-2.5 0-3.2l-18.2-10.4c-.6-.3-1.3-.3-1.8 0l-20.9 12c-.6.3-1.3.3-1.8 0l-65.8-37.7c-.6-.2-1-.8-1-1.5z"/><ellipse class="st0" cx="95.2" cy="137.6" rx="12.4" ry="12.4"/><ellipse class="st0" cx="134.9" cy="137.6" rx="12.4" ry="12.4"/></svg>
