<svg xmlns="http://www.w3.org/2000/svg" viewBox="0 0 64 64"><style>.st1{fill:black}</style><path d="M47.1 23.5v17.1c0 .1-.1.3-.2.4l-14.7 8.5c-.1.1-.3.1-.4 0L17.1 41c-.1-.1-.2-.2-.2-.4v-15c0-.1-.1-.3-.2-.4l-4-2.3c-.3-.2-.6 0-.6.4v19c0 .9.5 1.7 1.2 2.1l17.6 10.1c.8.4 1.7.4 2.5 0l17.5-10.1c.8-.4 1.2-1.3 1.2-2.1V21.8c0-.9-.5-1.7-1.2-2.1L33.3 9.6c-.8-.4-1.7-.4-2.5 0l-8.1 4.7c-.3.2-.3.6 0 .7l4.1 2.3c.1.1.3.1.4 0l4.7-2.7c.1-.1.3-.1.4 0L47 23.1c0 .1.1.2.1.4z" fill="black"/><circle class="st1" cx="40.3" cy="32.1" r="2.8"/><circle class="st1" cx="31.5" cy="32.1" r="2.8"/></svg>
