<?xml version="1.0"?>
<svg enable-background="new 0 0 512 512" height="512px" id="Layer_1" version="1.1" viewBox="0 0 512 512" width="512px" xml:space="preserve" xmlns="http://www.w3.org/2000/svg" xmlns:xlink="http://www.w3.org/1999/xlink">
    <g id="chat_x5F_support">
        <path d="M170.542,357.786c-15.944-2.444-31.341-6.704-46.024-12.779l-5.493-2.272l-44.78,16.973l15.091-33.515   l-8.914-7.281C48.552,292.879,31,258.503,31,222.119C31,145.96,108.141,84,202.96,84c66.491,0,124.284,30.47,152.885,74.937   c6.45,0.715,12.819,1.716,19.08,3.013C346.379,107.298,280.133,69,202.96,69C99.705,69,16,137.554,16,222.119   c0,42.354,20.999,80.691,54.934,108.411l-25.235,56.04l73.085-27.701c18.762,7.762,39.34,13.007,61.07,15.203   C176.34,368.804,173.231,363.368,170.542,357.786z" fill="#818B9E" />
        <path d="M492,303.273c0-72.144-71.411-130.629-159.5-130.629S173,231.128,173,303.273s71.411,130.629,159.5,130.629   c25.834,0,50.229-5.036,71.813-13.965l62.35,23.633l-21.528-47.809C474.085,372.112,492,339.406,492,303.273z M253.5,334.606   c-14.636,0-26.5-11.864-26.5-26.5s11.864-26.5,26.5-26.5c14.636,0,26.5,11.864,26.5,26.5S268.136,334.606,253.5,334.606z    M332.5,334.606c-14.636,0-26.5-11.864-26.5-26.5s11.864-26.5,26.5-26.5s26.5,11.864,26.5,26.5S347.136,334.606,332.5,334.606z    M411.5,334.606c-14.636,0-26.5-11.864-26.5-26.5s11.864-26.5,26.5-26.5s26.5,11.864,26.5,26.5S426.136,334.606,411.5,334.606z" fill="#455164" />
    </g>
</svg>
